<svg xmlns="http://www.w3.org/2000/svg" viewBox="0 0 195.62 300.28"><defs><style>.a{fill:#fff;}.b{fill:#ed1e79;}</style></defs><title>アセット 2</title><path class="a" d="M58.89,159.81c60.57-26.56,77.2,15.22,64.07,58.93-12.4,41.33-74,75-45-48.17l-17.53-5.9c-79.47,173.23,91.1,190.19,108.23-5.61,6.23-43.54-6.73-72,23.92-97.87"/><ellipse class="a" cx="97.81" cy="85.52" rx="106.67" ry="74.15" transform="translate(-31.03 68.76) rotate(-33.75)"/><path class="b" d="M87.3,58.49c30.84-20.61,67.46-19.94,81.79,1.5s.94,55.53-29.91,76.14-67.46,19.94-81.78-1.5S56.46,79.1,87.3,58.49Z"/><ellipse class="a" cx="119.53" cy="106.73" rx="44.2" ry="26" transform="translate(-39.15 84.4) rotate(-33.75)"/></svg>