<svg xmlns="http://www.w3.org/2000/svg" viewBox="0 0 500 500"><defs><style>.a{fill:#fff;}</style></defs><title>icon</title><path d="M177.8,256c93.61-41.06,119.31,23.51,99,91.07C257.65,411,162.38,463,207.23,272.63l-27.08-9.11C57.31,531.25,321,557.47,347.42,254.85c9.63-67.3-10.4-111.35,37-151.28"/><ellipse cx="237.95" cy="141.17" rx="164.86" ry="114.61" transform="translate(-38.33 156) rotate(-33.75)"/><path class="a" d="M221.7,99.4C269.37,67.54,326,68.58,348.12,101.72s1.45,85.83-46.22,117.69-104.27,30.81-126.42-2.33S174,131.25,221.7,99.4Z"/><ellipse cx="276.8" cy="181.85" rx="68.31" ry="40.19" transform="translate(-54.38 184.45) rotate(-33.75)"/></svg>